<svg width="256" xmlns="http://www.w3.org/2000/svg" height="256" id="screenshot-cad2695c-71e5-807b-8008-98f5d4a22df0" viewBox="0 0 256 256" xmlns:xlink="http://www.w3.org/1999/xlink" fill="none" version="1.1"><g id="shape-cad2695c-71e5-807b-8008-98f5d4a22df0"><defs><clipPath id="frame-clip-cad2695c-71e5-807b-8008-98f5d4a22df0-render-1" class="frame-clip frame-clip-def"><rect rx="0" ry="0" x="0" y="0" width="256" height="256" transform="matrix(1.000000, 0.000000, 0.000000, 1.000000, 0.000000, 0.000000)"/></clipPath></defs><g class="frame-container-wrapper"><g class="frame-container-blur"><g class="frame-container-shadows"><g clip-path="url(#frame-clip-cad2695c-71e5-807b-8008-98f5d4a22df0-render-1)" fill="none"><g class="fills" id="fills-cad2695c-71e5-807b-8008-98f5d4a22df0"><rect width="256" height="256" class="frame-background" x="0" transform="matrix(1.000000, 0.000000, 0.000000, 1.000000, 0.000000, 0.000000)" style="fill: rgb(255, 255, 255); fill-opacity: 0;" ry="0" rx="0" y="0"/></g><g class="frame-children"><g id="shape-cad2695c-71e5-807b-8008-98f5fa4611ce"><g class="fills" id="fills-cad2695c-71e5-807b-8008-98f5fa4611ce"><path d="M80.70928955078125,0L146,60L240.8670654296875,9.28497314453125L201.7734375,92.84967041015625L247.1724853515625,118.05181884765625L208,143L256,244.0621337890625L165,192L131.1527099609375,242.73583984375L106,194L1.26104736328125,256L69,142L0,107.4404296875L83.23150634765625,82.23834228515625L80.70928955078125,0" style="fill: rgb(238, 34, 34); fill-opacity: 1;"/></g><g id="strokes-a133b9da-79de-8028-8008-9992176624d2-cad2695c-71e5-807b-8008-98f5fa4611ce" class="strokes"><g class="inner-stroke-shape"><defs><clipPath id="inner-stroke-render-2-cad2695c-71e5-807b-8008-98f5fa4611ce-1"><use href="#stroke-shape-render-2-cad2695c-71e5-807b-8008-98f5fa4611ce-1"/></clipPath><path d="M80.70928955078125,0L146,60L240.8670654296875,9.28497314453125L201.7734375,92.84967041015625L247.1724853515625,118.05181884765625L208,143L256,244.0621337890625L165,192L131.1527099609375,242.73583984375L106,194L1.26104736328125,256L69,142L0,107.4404296875L83.23150634765625,82.23834228515625L80.70928955078125,0" id="stroke-shape-render-2-cad2695c-71e5-807b-8008-98f5fa4611ce-1" style="fill: none; stroke-width: 50; stroke: rgb(255, 170, 34); stroke-opacity: 1;"/></defs><use href="#stroke-shape-render-2-cad2695c-71e5-807b-8008-98f5fa4611ce-1" clip-path="url('#inner-stroke-render-2-cad2695c-71e5-807b-8008-98f5fa4611ce-1')"/></g><g class="inner-stroke-shape"><defs><clipPath id="inner-stroke-render-2-cad2695c-71e5-807b-8008-98f5fa4611ce-0"><use href="#stroke-shape-render-2-cad2695c-71e5-807b-8008-98f5fa4611ce-0"/></clipPath><path d="M80.70928955078125,0L146,60L240.8670654296875,9.28497314453125L201.7734375,92.84967041015625L247.1724853515625,118.05181884765625L208,143L256,244.0621337890625L165,192L131.1527099609375,242.73583984375L106,194L1.26104736328125,256L69,142L0,107.4404296875L83.23150634765625,82.23834228515625L80.70928955078125,0" id="stroke-shape-render-2-cad2695c-71e5-807b-8008-98f5fa4611ce-0" style="fill: none; stroke-width: 10; stroke: rgb(0, 0, 0); stroke-opacity: 1;"/></defs><use href="#stroke-shape-render-2-cad2695c-71e5-807b-8008-98f5fa4611ce-0" clip-path="url('#inner-stroke-render-2-cad2695c-71e5-807b-8008-98f5fa4611ce-0')"/></g></g></g></g></g></g></g></g></g></svg>